<svg width="40" height="40" viewBox="0 0 40 40" fill="none" xmlns="http://www.w3.org/2000/svg">
<path d="M23.3335 13.3334V10.0001C23.3335 9.11603 22.9823 8.26818 22.3572 7.64306C21.7321 7.01794 20.8842 6.66675 20.0002 6.66675H8.3335C7.44944 6.66675 6.6016 7.01794 5.97648 7.64306C5.35135 8.26818 5.00016 9.11603 5.00016 10.0001V30.0001C5.00016 30.8841 5.35135 31.732 5.97648 32.3571C6.6016 32.9822 7.44944 33.3334 8.3335 33.3334H20.0002C20.8842 33.3334 21.7321 32.9822 22.3572 32.3571C22.9823 31.732 23.3335 30.8841 23.3335 30.0001V26.6667" stroke="white" stroke-width="3.33333" stroke-linecap="round" stroke-linejoin="round"/>
<path d="M15 20H35M35 20L30 15M35 20L30 25" stroke="white" stroke-width="3.33333" stroke-linecap="round" stroke-linejoin="round"/>
</svg>
