<svg width="28" height="28" viewBox="0 0 28 28" fill="none" xmlns="http://www.w3.org/2000/svg">
<path d="M13.9999 6.90675C14.2969 6.90675 14.5818 6.78875 14.7918 6.57871C15.0019 6.36867 15.1199 6.08379 15.1199 5.78675C15.1199 5.48971 15.0019 5.20483 14.7918 4.99479C14.5818 4.78475 14.2969 4.66675 13.9999 4.66675C13.7028 4.66675 13.418 4.78475 13.2079 4.99479C12.9979 5.20483 12.8799 5.48971 12.8799 5.78675C12.8799 6.08379 12.9979 6.36867 13.2079 6.57871C13.418 6.78875 13.7028 6.90675 13.9999 6.90675ZM13.9999 15.1201C14.2969 15.1201 14.5818 15.0021 14.7918 14.792C15.0019 14.582 15.1199 14.2971 15.1199 14.0001C15.1199 13.703 15.0019 13.4182 14.7918 13.2081C14.5818 12.9981 14.2969 12.8801 13.9999 12.8801C13.7028 12.8801 13.418 12.9981 13.2079 13.2081C12.9979 13.4182 12.8799 13.703 12.8799 14.0001C12.8799 14.2971 12.9979 14.582 13.2079 14.792C13.418 15.0021 13.7028 15.1201 13.9999 15.1201ZM13.9999 23.3334C14.2969 23.3334 14.5818 23.2154 14.7918 23.0054C15.0019 22.7953 15.1199 22.5105 15.1199 22.2134C15.1199 21.9164 15.0019 21.6315 14.7918 21.4215C14.5818 21.2114 14.2969 21.0934 13.9999 21.0934C13.7028 21.0934 13.418 21.2114 13.2079 21.4215C12.9979 21.6315 12.8799 21.9164 12.8799 22.2134C12.8799 22.5105 12.9979 22.7953 13.2079 23.0054C13.418 23.2154 13.7028 23.3334 13.9999 23.3334Z" stroke="white" stroke-width="2" stroke-linecap="round" stroke-linejoin="round"/>
</svg>
